<svg width="12" height="12" viewBox="0 0 12 12" fill="none" xmlns="http://www.w3.org/2000/svg">
<path d="M11.1905 3.44702C11.0832 3.35746 10.9529 3.29986 10.8144 3.2808C10.6759 3.26174 10.5349 3.28198 10.4074 3.33922L8.03629 4.39308L6.65572 1.90802C6.59077 1.79109 6.49573 1.69366 6.38046 1.62582C6.26518 1.55799 6.13386 1.52222 6.00011 1.52222C5.86635 1.52222 5.73503 1.55799 5.61976 1.62582C5.50448 1.69366 5.40944 1.79109 5.3445 1.90802L3.96388 4.39303L1.59239 3.33903C1.4648 3.28234 1.32391 3.26239 1.18559 3.28143C1.04727 3.30047 0.917008 3.35774 0.809473 3.4468C0.701938 3.53585 0.621397 3.65316 0.576918 3.78551C0.532438 3.91786 0.525785 4.06 0.557709 4.19592L1.75046 9.27403C1.77315 9.37234 1.81565 9.46499 1.87536 9.54633C1.93506 9.62766 2.01072 9.69597 2.09772 9.74708C2.18516 9.79856 2.28207 9.83195 2.38267 9.84524C2.48327 9.85854 2.58551 9.85148 2.68333 9.82449C4.85317 9.22547 7.14473 9.22524 9.31468 9.82385C9.41246 9.85081 9.51466 9.85785 9.61521 9.84455C9.71576 9.83126 9.81262 9.79789 9.90003 9.74644C9.98698 9.69537 10.0626 9.62712 10.1223 9.54585C10.182 9.46458 10.2245 9.372 10.2473 9.27375L11.4421 4.19633C11.4746 4.0604 11.4682 3.91808 11.4238 3.78558C11.3793 3.65309 11.2984 3.53578 11.1905 3.44702Z" fill="#F6C443"/>
</svg>
