<svg width="1243" height="281" viewBox="0 0 1243 281" fill="none" xmlns="http://www.w3.org/2000/svg">
<g filter="url(#filter0_b_711_11)">
<path d="M1192.01 274.732C1174.71 244.008 1155.99 213.672 1135.85 183.722C1115.71 153.773 1094.28 125.502 1071.56 98.9092V274.732H1011.92V6.35042H1061.11C1069.63 14.8705 1079.05 25.3269 1089.38 37.7197C1099.71 50.1125 1110.16 63.409 1120.75 77.6091C1131.59 91.551 1142.31 106.138 1152.89 121.371C1163.48 136.346 1173.42 150.804 1182.71 164.746V6.35042H1242.74V274.732H1192.01Z" fill="white" fill-opacity="0.2"/>
</g>
<g filter="url(#filter1_b_711_11)">
<path d="M756.695 140.348C756.695 153.515 758.244 165.391 761.342 175.977C764.698 186.562 769.346 195.728 775.284 203.474C781.48 210.961 788.968 216.77 797.746 220.901C806.524 225.032 816.593 227.097 827.953 227.097C839.055 227.097 848.995 225.032 857.773 220.901C866.81 216.77 874.297 210.961 880.235 203.474C886.432 195.728 891.079 186.562 894.177 175.977C897.534 165.391 899.212 153.515 899.212 140.348C899.212 127.18 897.534 115.304 894.177 104.718C891.079 93.8746 886.432 84.7091 880.235 77.2218C874.297 69.4763 866.81 63.5381 857.773 59.4071C848.995 55.2762 839.055 53.2107 827.953 53.2107C816.593 53.2107 806.524 55.4053 797.746 59.7944C788.968 63.9253 781.48 69.8636 775.284 77.6091C769.346 85.0964 764.698 94.2619 761.342 105.106C758.244 115.691 756.695 127.438 756.695 140.348ZM961.563 140.348C961.563 163.326 958.078 183.593 951.107 201.15C944.394 218.448 935.099 233.036 923.223 244.912C911.347 256.53 897.146 265.308 880.623 271.247C864.357 277.185 846.801 280.154 827.953 280.154C809.622 280.154 792.324 277.185 776.058 271.247C759.793 265.308 745.593 256.53 733.458 244.912C721.323 233.036 711.771 218.448 704.8 201.15C697.829 183.593 694.343 163.326 694.343 140.348C694.343 117.369 697.958 97.231 705.187 79.9327C712.416 62.3762 722.098 47.6598 734.233 35.7833C746.625 23.9069 760.826 14.9996 776.833 9.06134C793.098 3.12312 810.139 0.154007 827.953 0.154007C846.284 0.154007 863.583 3.12312 879.848 9.06134C896.114 14.9996 910.314 23.9069 922.448 35.7833C934.583 47.6598 944.136 62.3762 951.107 79.9327C958.078 97.231 961.563 117.369 961.563 140.348Z" fill="white" fill-opacity="0.2"/>
</g>
<g filter="url(#filter2_b_711_11)">
<path d="M477.908 274.732V6.35042H659.153V57.0835H538.323V109.753H645.598V159.324H538.323V223.999H668.06V274.732H477.908Z" fill="white" fill-opacity="0.2"/>
</g>
<g filter="url(#filter3_b_711_11)">
<path d="M243.047 274.732V6.35042H424.291V57.0835H303.462V109.753H410.737V159.324H303.462V223.999H433.199V274.732H243.047Z" fill="white" fill-opacity="0.2"/>
</g>
<g filter="url(#filter4_b_711_11)">
<path d="M90.8353 228.646C99.3554 228.646 106.326 228.001 111.748 226.71C117.428 225.161 121.946 223.225 125.303 220.901C128.659 218.319 130.983 215.35 132.274 211.994C133.565 208.637 134.21 204.894 134.21 200.763C134.21 191.984 130.079 184.755 121.817 179.075C113.555 173.137 99.3554 166.811 79.2171 160.099C70.4389 157 61.6606 153.515 52.8824 149.642C44.1041 145.511 36.2295 140.477 29.2586 134.539C22.2876 128.342 16.6076 120.984 12.2185 112.464C7.82935 103.686 5.63479 93.1001 5.63479 80.7073C5.63479 68.3145 7.95844 57.2126 12.6057 47.4016C17.253 37.3324 23.8367 28.8124 32.3568 21.8414C40.8768 14.8705 51.2042 9.57772 63.3388 5.96315C75.4734 2.09039 89.1572 0.154007 104.39 0.154007C122.463 0.154007 138.083 2.09039 151.25 5.96315C164.418 9.8359 175.261 14.0959 183.781 18.7432L166.354 66.3781C158.867 62.5053 150.476 59.1489 141.181 56.3089C132.145 53.2107 121.172 51.6616 108.263 51.6616C93.8045 51.6616 83.348 53.7271 76.8934 57.858C70.697 61.7308 67.5988 67.7981 67.5988 76.06C67.5988 80.9655 68.7607 85.0964 71.0843 88.4528C73.408 91.8092 76.6353 94.9074 80.7662 97.7474C85.1553 100.329 90.0608 102.782 95.4827 105.106C101.163 107.171 107.359 109.366 114.072 111.689C128.014 116.853 140.148 122.017 150.476 127.18C160.803 132.086 169.323 137.895 176.036 144.608C183.007 151.32 188.171 159.195 191.527 168.231C194.883 177.268 196.561 188.241 196.561 201.15C196.561 226.194 187.783 245.687 170.227 259.628C152.67 273.312 126.206 280.154 90.8353 280.154C78.9589 280.154 68.2443 279.379 58.6915 277.83C49.1387 276.539 40.6187 274.861 33.1313 272.796C25.9022 270.73 19.5767 268.536 14.1548 266.212C8.99118 263.888 4.60206 261.694 0.987488 259.628L18.0276 211.606C26.0313 215.995 35.8423 219.997 47.4605 223.612C59.337 226.968 73.7952 228.646 90.8353 228.646Z" fill="white" fill-opacity="0.2"/>
</g>
<defs>
<filter id="filter0_b_711_11" x="1000.19" y="-5.38519" width="254.287" height="291.853" filterUnits="userSpaceOnUse" color-interpolation-filters="sRGB">
<feFlood flood-opacity="0" result="BackgroundImageFix"/>
<feGaussianBlur in="BackgroundImageFix" stdDeviation="5.86781"/>
<feComposite in2="SourceAlpha" operator="in" result="effect1_backgroundBlur_711_11"/>
<feBlend mode="normal" in="SourceGraphic" in2="effect1_backgroundBlur_711_11" result="shape"/>
</filter>
<filter id="filter1_b_711_11" x="682.608" y="-11.5816" width="290.691" height="303.471" filterUnits="userSpaceOnUse" color-interpolation-filters="sRGB">
<feFlood flood-opacity="0" result="BackgroundImageFix"/>
<feGaussianBlur in="BackgroundImageFix" stdDeviation="5.86781"/>
<feComposite in2="SourceAlpha" operator="in" result="effect1_backgroundBlur_711_11"/>
<feBlend mode="normal" in="SourceGraphic" in2="effect1_backgroundBlur_711_11" result="shape"/>
</filter>
<filter id="filter2_b_711_11" x="466.172" y="-5.38519" width="213.623" height="291.853" filterUnits="userSpaceOnUse" color-interpolation-filters="sRGB">
<feFlood flood-opacity="0" result="BackgroundImageFix"/>
<feGaussianBlur in="BackgroundImageFix" stdDeviation="5.86781"/>
<feComposite in2="SourceAlpha" operator="in" result="effect1_backgroundBlur_711_11"/>
<feBlend mode="normal" in="SourceGraphic" in2="effect1_backgroundBlur_711_11" result="shape"/>
</filter>
<filter id="filter3_b_711_11" x="231.311" y="-5.38519" width="213.623" height="291.853" filterUnits="userSpaceOnUse" color-interpolation-filters="sRGB">
<feFlood flood-opacity="0" result="BackgroundImageFix"/>
<feGaussianBlur in="BackgroundImageFix" stdDeviation="5.86781"/>
<feComposite in2="SourceAlpha" operator="in" result="effect1_backgroundBlur_711_11"/>
<feBlend mode="normal" in="SourceGraphic" in2="effect1_backgroundBlur_711_11" result="shape"/>
</filter>
<filter id="filter4_b_711_11" x="-10.7481" y="-11.5816" width="219.045" height="303.471" filterUnits="userSpaceOnUse" color-interpolation-filters="sRGB">
<feFlood flood-opacity="0" result="BackgroundImageFix"/>
<feGaussianBlur in="BackgroundImageFix" stdDeviation="5.86781"/>
<feComposite in2="SourceAlpha" operator="in" result="effect1_backgroundBlur_711_11"/>
<feBlend mode="normal" in="SourceGraphic" in2="effect1_backgroundBlur_711_11" result="shape"/>
</filter>
</defs>
</svg>
