<svg width="1282" height="290" viewBox="0 0 1282 290" fill="none" xmlns="http://www.w3.org/2000/svg">
<g filter="url(#filter0_b_671_12)">
<path d="M92.8031 235.93C101.597 235.93 108.793 235.264 114.389 233.931C120.252 232.332 124.916 230.334 128.381 227.935C131.845 225.27 134.244 222.205 135.576 218.741C136.909 215.276 137.575 211.412 137.575 207.148C137.575 198.087 133.311 190.625 124.783 184.762C116.255 178.633 101.597 172.104 80.8106 165.175C71.7497 161.977 62.6887 158.379 53.6278 154.382C44.5668 150.118 36.4386 144.921 29.2432 138.791C22.0477 132.395 16.1848 124.8 11.6543 116.006C7.12381 106.945 4.85857 96.0184 4.85857 83.2264C4.85857 70.4345 7.25706 58.9751 12.054 48.8481C16.851 38.4547 23.6467 29.6602 32.4412 22.4648C41.2356 15.2693 51.8955 9.80613 64.421 6.07515C76.9464 2.07766 91.0708 0.0789173 106.794 0.0789173C125.449 0.0789173 141.572 2.07766 155.164 6.07515C168.755 10.0726 179.948 14.4698 188.742 19.2668L170.754 68.4358C163.025 64.4383 154.364 60.9738 144.77 58.0423C135.443 54.8444 124.117 53.2454 110.792 53.2454C95.8678 53.2454 85.0746 55.3773 78.4121 59.6413C72.0162 63.6388 68.8182 69.9015 68.8182 78.4295C68.8182 83.4929 70.0174 87.7569 72.4159 91.2214C74.8144 94.6859 78.1456 97.8838 82.4096 100.815C86.9401 103.48 92.0036 106.012 97.6 108.411C103.463 110.543 109.859 112.808 116.788 115.206C131.179 120.536 143.704 125.866 154.364 131.196C165.024 136.26 173.819 142.256 180.748 149.185C187.943 156.114 193.273 164.242 196.737 173.569C200.202 182.897 201.934 194.223 201.934 207.548C201.934 233.398 192.873 253.519 174.751 267.91C156.629 282.034 129.313 289.096 92.8031 289.096C80.5441 289.096 69.4844 288.297 59.624 286.698C49.7636 285.365 40.9691 283.633 33.2407 281.501C25.7787 279.369 19.2495 277.104 13.653 274.706C8.32305 272.307 3.79258 270.042 0.0615972 267.91L17.6505 218.341C25.9119 222.872 36.0389 227.002 48.0313 230.733C60.2902 234.198 75.2142 235.93 92.8031 235.93ZM249.916 283.5V6.47489H436.998V58.8418H312.277V113.208H423.007V164.375H312.277V231.133H446.192V283.5H249.916ZM492.341 283.5V6.47489H679.423V58.8418H554.702V113.208H665.432V164.375H554.702V231.133H688.618V283.5H492.341ZM780.107 144.788C780.107 158.379 781.706 170.638 784.904 181.564C788.368 192.491 793.165 201.951 799.294 209.946C805.69 217.675 813.419 223.671 822.48 227.935C831.541 232.199 841.934 234.331 853.66 234.331C865.12 234.331 875.38 232.199 884.441 227.935C893.768 223.671 901.497 217.675 907.626 209.946C914.022 201.951 918.819 192.491 922.017 181.564C925.481 170.638 927.214 158.379 927.214 144.788C927.214 131.196 925.481 118.937 922.017 108.011C918.819 96.8179 914.022 87.3572 907.626 79.6287C901.497 71.6337 893.768 65.5043 884.441 61.2403C875.38 56.9763 865.12 54.8444 853.66 54.8444C841.934 54.8444 831.541 57.1096 822.48 61.6401C813.419 65.904 805.69 72.0335 799.294 80.0285C793.165 87.7569 788.368 97.2176 784.904 108.411C781.706 119.337 780.107 131.463 780.107 144.788ZM991.573 144.788C991.573 168.506 987.975 189.426 980.78 207.548C973.851 225.403 964.257 240.461 951.998 252.719C939.739 264.712 925.082 273.773 908.026 279.902C891.236 286.032 873.115 289.096 853.66 289.096C834.739 289.096 816.883 286.032 800.094 279.902C783.305 273.773 768.647 264.712 756.122 252.719C743.596 240.461 733.736 225.403 726.54 207.548C719.345 189.426 715.747 168.506 715.747 144.788C715.747 121.069 719.478 100.282 726.94 82.4269C734.402 64.305 744.396 49.1146 756.921 36.8557C769.713 24.5968 784.371 15.4026 800.893 9.27311C817.683 3.14365 835.272 0.0789173 853.66 0.0789173C872.582 0.0789173 890.437 3.14365 907.226 9.27311C924.016 15.4026 938.673 24.5968 951.199 36.8557C963.724 49.1146 973.584 64.305 980.78 82.4269C987.975 100.282 991.573 121.069 991.573 144.788ZM1229.44 283.5C1211.58 251.787 1192.26 220.473 1171.48 189.559C1150.69 158.645 1128.57 129.464 1105.12 102.015V283.5H1043.56V6.47489H1094.32C1103.12 15.2693 1112.85 26.0625 1123.51 38.8544C1134.17 51.6464 1144.96 65.371 1155.89 80.0285C1167.08 94.4194 1178.14 109.477 1189.06 125.2C1199.99 140.657 1210.25 155.581 1219.84 169.972V6.47489H1281.81V283.5H1229.44Z" fill="white" fill-opacity="0.2"/>
</g>
<defs>
<filter id="filter0_b_671_12" x="-12.052" y="-12.0346" width="1305.97" height="313.245" filterUnits="userSpaceOnUse" color-interpolation-filters="sRGB">
<feFlood flood-opacity="0" result="BackgroundImageFix"/>
<feGaussianBlur in="BackgroundImageFix" stdDeviation="6.05678"/>
<feComposite in2="SourceAlpha" operator="in" result="effect1_backgroundBlur_671_12"/>
<feBlend mode="normal" in="SourceGraphic" in2="effect1_backgroundBlur_671_12" result="shape"/>
</filter>
</defs>
</svg>
